<svg width="1024" height="139" viewBox="0 0 1024 139" fill="none" xmlns="http://www.w3.org/2000/svg">
<path d="M170.861 113.364V6.75987H206.346L219.317 53.4272L225.43 77.7301H225.728C228.512 66.0011 230.5 57.9002 231.692 53.4272L244.813 6.75987H280.596V113.364H256.442V59.6893L256.89 38.3684H256.591C254.107 49.004 252.466 55.614 251.671 58.1984L236.314 113.364H214.546L199.338 58.3474L194.418 38.3684H194.12C194.418 49.7992 194.567 56.9559 194.567 59.8384V113.364H170.861ZM316.228 115.303C308.376 115.303 302.064 113.265 297.293 109.19C292.522 105.114 290.136 99.3988 290.136 92.0434C290.136 84.2903 292.72 78.6743 297.889 75.1954C303.058 71.6171 310.214 69.2315 319.359 68.0388C326.814 67.1442 331.883 66.1502 334.567 65.0568C337.35 63.864 338.742 62.0252 338.742 59.5402C338.742 54.0733 335.263 51.3399 328.305 51.3399C320.85 51.3399 316.725 54.62 315.93 61.1803H293.565C293.863 53.626 296.945 47.364 302.809 42.3941C308.773 37.4242 317.222 34.9392 328.156 34.9392C339.09 34.9392 347.34 37.0266 352.906 41.2013C359.367 45.873 362.597 53.129 362.597 62.9695V101.436C362.597 107.5 363.492 111.128 365.281 112.321V113.364H341.724C340.73 111.973 339.885 109.14 339.189 104.866H338.891C334.02 111.824 326.466 115.303 316.228 115.303ZM323.981 99.7964C328.553 99.7964 332.231 98.554 335.014 96.069C337.897 93.4847 339.338 90.1548 339.338 86.0795V76.9846C336.952 78.1774 332.778 79.5192 326.814 81.0102C321.943 82.1036 318.514 83.3957 316.526 84.8867C314.538 86.3777 313.544 88.5147 313.544 91.2979C313.544 96.9636 317.023 99.7964 323.981 99.7964ZM374.378 113.364V37.0266H397.786V47.4634H398.234C404.098 39.0145 411.951 34.7901 421.791 34.7901C430.041 34.7901 436.502 37.4739 441.174 42.8414C445.945 48.1094 448.33 55.0673 448.33 63.7149V113.364H424.027V68.6351C424.027 64.4604 422.984 61.1803 420.896 58.7947C418.908 56.3098 415.976 55.0673 412.1 55.0673C408.124 55.0673 404.893 56.5583 402.408 59.5402C399.923 62.5222 398.681 66.3987 398.681 71.1698V113.364H374.378ZM485.651 115.601C477.004 115.601 470.344 113.066 465.672 107.997C461.1 102.828 458.814 95.8702 458.814 87.1232V37.0266H482.967V82.0539C482.967 90.7015 486.794 95.0253 494.448 95.0253C498.623 95.0253 501.903 93.6337 504.288 90.8506C506.674 87.9681 507.867 84.2406 507.867 79.6683V37.0266H532.169V113.364H508.91V103.971H508.463C502.698 111.724 495.094 115.601 485.651 115.601ZM587.843 115.899C573.43 115.899 561.95 112.818 553.402 106.655C544.953 100.393 540.579 91.447 540.281 79.8174H566.82C567.914 89.956 574.872 95.0253 587.694 95.0253C592.465 95.0253 596.491 94.1307 599.771 92.3416C603.15 90.453 604.84 87.6202 604.84 83.843C604.84 81.2587 603.797 79.1216 601.709 77.4319C599.622 75.6427 597.485 74.4002 595.298 73.7044C593.211 73.0087 589.185 71.9153 583.221 70.4243C582.923 70.3249 582.724 70.2752 582.625 70.2752C582.525 70.1758 582.376 70.1261 582.177 70.1261C581.979 70.0267 581.78 69.977 581.581 69.977C577.009 68.8836 573.232 67.9394 570.25 67.1442C567.367 66.2496 564.037 64.9574 560.26 63.2676C556.583 61.4785 553.65 59.5402 551.464 57.4529C549.277 55.3655 547.388 52.6321 545.798 49.2525C544.307 45.7736 543.561 41.8971 543.561 37.623C543.561 26.6892 547.438 18.4888 555.191 13.0219C563.043 7.55505 573.281 4.8216 585.905 4.8216C598.031 4.8216 607.922 7.60475 615.575 13.171C623.328 18.7373 627.453 26.888 627.95 37.623H602.157C601.66 33.5476 599.92 30.4166 596.938 28.2298C593.956 25.9437 589.98 24.8006 585.01 24.8006C580.438 24.8006 576.711 25.7449 573.828 27.6334C571.045 29.4226 569.653 31.8082 569.653 34.7901C569.653 38.1696 571.343 40.6546 574.723 42.245C578.102 43.7359 584.464 45.5251 593.807 47.6125C599.672 49.004 604.492 50.3956 608.269 51.7872C612.047 53.0794 615.873 54.9679 619.75 57.4529C623.726 59.9378 626.658 63.1682 628.547 67.1442C630.535 71.0207 631.529 75.6924 631.529 81.1593C631.529 91.9937 627.404 100.492 619.154 106.655C611.003 112.818 600.566 115.899 587.843 115.899ZM678.684 115.75C666.558 115.75 656.767 111.923 649.312 104.269C641.857 96.6157 638.13 86.9741 638.13 75.3445C638.13 63.7149 641.807 54.0733 649.163 46.4197C656.518 38.766 666.16 34.9392 678.088 34.9392C688.226 34.9392 696.526 37.623 702.987 42.9904C709.448 48.3579 713.225 55.4152 714.318 64.1622H690.91C689.22 56.608 685.046 52.8309 678.386 52.8309C673.217 52.8309 669.291 54.8188 666.607 58.7947C664.023 62.7707 662.731 68.2872 662.731 75.3445C662.731 82.3024 664.073 87.7693 666.756 91.7452C669.44 95.6217 673.317 97.56 678.386 97.56C686.139 97.56 690.562 93.1865 691.656 84.4394H714.915C714.616 93.4847 711.138 100.989 704.478 106.953C697.918 112.818 689.32 115.75 678.684 115.75ZM722.66 113.364V37.0266H745.919V48.9543H746.366C751.535 40.2073 758.493 35.8338 767.24 35.8338C769.526 35.8338 771.116 36.0326 772.011 36.4302V57.3038H771.414C763.86 56.2104 757.896 57.5523 753.523 61.3294C749.149 65.0071 746.962 70.9213 746.962 79.0719V113.364H722.66ZM800.065 115.303C792.213 115.303 785.901 113.265 781.13 109.19C776.359 105.114 773.973 99.3988 773.973 92.0434C773.973 84.2903 776.558 78.6743 781.726 75.1954C786.895 71.6171 794.052 69.2315 803.196 68.0388C810.651 67.1442 815.721 66.1502 818.404 65.0568C821.187 63.864 822.579 62.0252 822.579 59.5402C822.579 54.0733 819.1 51.3399 812.142 51.3399C804.687 51.3399 800.562 54.62 799.767 61.1803H777.403C777.701 53.626 780.782 47.364 786.647 42.3941C792.611 37.4242 801.059 34.9392 811.993 34.9392C822.927 34.9392 831.177 37.0266 836.743 41.2013C843.204 45.873 846.435 53.129 846.435 62.9695V101.436C846.435 107.5 847.329 111.128 849.118 112.321V113.364H825.561C824.567 111.973 823.722 109.14 823.026 104.866H822.728C817.858 111.824 810.303 115.303 800.065 115.303ZM807.818 99.7964C812.391 99.7964 816.068 98.554 818.852 96.069C821.734 93.4847 823.175 90.1548 823.175 86.0795V76.9846C820.79 78.1774 816.615 79.5192 810.651 81.0102C805.781 82.1036 802.352 83.3957 800.364 84.8867C798.376 86.3777 797.382 88.5147 797.382 91.2979C797.382 96.9636 800.861 99.7964 807.818 99.7964ZM858.216 138.562V37.0266H881.475V46.2706H881.922C887.786 38.6169 895.49 34.7901 905.032 34.7901C914.972 34.7901 922.874 38.6169 928.738 46.2706C934.702 53.8248 937.684 63.4664 937.684 75.1954C937.684 87.5208 934.653 97.3612 928.589 104.717C922.526 112.072 914.475 115.75 904.436 115.75C895.092 115.75 887.886 112.321 882.817 105.462H882.518V138.562H858.216ZM898.174 96.9636C902.845 96.9636 906.473 95.1247 909.058 91.447C911.741 87.6699 913.083 82.5509 913.083 76.09C913.083 69.3309 911.791 64.0131 909.207 60.1366C906.622 56.2601 902.796 54.3218 897.726 54.3218C892.657 54.3218 888.731 56.3595 885.948 60.4348C883.164 64.4107 881.773 69.6291 881.773 76.09C881.773 82.3521 883.214 87.4214 886.097 91.2979C888.979 95.075 893.005 96.9636 898.174 96.9636ZM983.143 115.601C970.817 115.601 960.927 111.824 953.472 104.269C946.117 96.6157 942.439 86.8747 942.439 75.0463C942.439 63.5161 946.067 53.9242 953.323 46.2706C960.679 38.6169 970.121 34.7901 981.652 34.7901C992.088 34.7901 1000.79 37.9708 1007.74 44.3323C1016.89 52.6818 1021.36 65.0568 1021.16 81.4575H966.295C967.09 86.7256 968.929 90.8506 971.811 93.8325C974.694 96.7151 978.57 98.1564 983.441 98.1564C989.703 98.1564 993.927 95.6217 996.114 90.5524H1019.82C1018.03 97.9079 1013.76 103.921 1007 108.593C1000.34 113.265 992.387 115.601 983.143 115.601ZM966.444 66.9951H996.561C996.164 62.4228 994.623 58.7947 991.939 56.111C989.355 53.4272 986.075 52.0854 982.099 52.0854C973.451 52.0854 968.233 57.0553 966.444 66.9951Z" fill="white"/>
<path d="M13.2366 96.9337C13.2366 94.1383 15.5439 91.8942 18.3382 91.9718L97.7589 94.1779C100.446 94.2526 102.585 96.4521 102.585 99.1398V120.693C102.585 123.47 100.306 125.707 97.5291 125.656L18.1085 124.185C15.4033 124.135 13.2366 121.928 13.2366 119.222V96.9337Z" fill="#77DB89"/>
<path d="M50.6078 53.635C50.4314 50.901 52.5034 48.541 55.2373 48.3621L116.331 44.3653C119.067 44.1864 121.429 46.2589 121.608 48.9945L123.099 71.7748C123.286 74.6377 121.014 77.0627 118.145 77.0627L56.7737 77.0627C54.1564 77.0627 51.9888 75.0305 51.8202 72.4186L50.6078 53.635Z" fill="#77DB89"/>
<path d="M0 5.0445C0 2.27176 2.27146 0.0366365 5.04384 0.0813523L97.7013 1.57583C100.411 1.61954 102.585 3.82876 102.585 6.53898V25.7649C102.585 28.4596 100.435 30.6621 97.7413 30.7272L5.08385 32.969C2.29623 33.0364 0 30.7951 0 28.0066V5.0445Z" fill="#77DB89"/>
</svg>
